<svg width="179" height="68" viewBox="0 0 179 68" fill="none" xmlns="http://www.w3.org/2000/svg">
<path d="M80.2995 32.3531C80.2995 30.4833 80.6323 29.816 78.5479 28.7032L77.1073 27.9916V26.7011H91.4733V27.9916L90.0097 28.5703C87.8371 29.4606 87.8371 29.7048 87.8818 32.3531L87.9035 43.0105L87.3713 43.5223C84.8668 44.1678 79.0133 45.7696 73.7372 45.7696C61.6321 45.7696 55.6685 39.4728 55.6685 25.8555C55.6685 11.214 64.0933 4.87305 75.1556 4.87305C78.1267 4.87305 83.5141 4.87305 87.2602 8.05457C88.5017 9.10066 88.6125 10.2799 88.6125 10.747C88.6125 11.6372 88.4353 11.8152 88.2577 12.1711L85.576 17.4004H84.5777C84.5777 14.8192 81.5853 7.9437 73.8031 7.9437C64.7797 7.9437 64.3365 14.2628 64.3365 24.9432C64.3365 34.2886 65.3119 42.699 76.0864 42.699C79.5673 42.699 80.2097 40.8528 80.2988 38.7832V32.3531H80.2995Z" fill="#002E71"/>
<path d="M95.0645 43.7003L97.6364 42.6544C99.7427 41.8313 99.7427 40.296 99.7427 36.8921V12.349C99.7427 10.4576 99.2102 9.52327 97.7474 8.52214L95.397 6.94245V5.65161H106.061L106.704 6.0522C107.879 7.63206 110.317 11.882 113.598 16.332L124.905 31.7744C125.371 32.4195 125.614 32.7087 125.836 32.7087C126.302 32.7087 126.302 32.13 126.302 31.0623V12.3938C126.302 9.70125 126.257 9.1673 123.974 8.23294L120.627 6.94245V5.65161H134.039V6.94245L132.332 7.58744C129.827 8.58891 129.339 9.1673 129.339 13.0393V36.1803C129.339 39.718 129.406 43.2999 129.406 44.5238L129.007 44.9913H125.726L125.083 44.5238C124.551 43.8788 121.513 39.5841 118.409 35.4233L104.708 17.0443C103.954 16.0427 103.6 15.5089 103.312 15.5089C102.78 15.5089 102.78 16.1094 102.78 16.9329V37.9373C102.78 40.7629 102.78 41.6533 105.241 42.4768L108.699 43.7003V44.9912H95.0645V43.7003Z" fill="#002E71"/>
<path d="M137.476 43.7004L140.048 42.833C141.977 42.1875 142.043 41.1199 142.043 37.4259V12.0377C142.043 9.23431 142.043 8.52238 140.048 7.87705L137.476 6.94269V5.65186H156.875C163.659 5.65186 170.31 7.12067 170.31 16.0427C170.31 24.2093 164.236 29.2602 154.747 29.2602C154.347 29.2602 153.816 29.1936 153.461 29.1936L152.596 27.0793L153.061 26.6118C157.318 26.5011 162.484 24.7429 161.753 16.4881C161.176 10.0575 159.313 8.85586 154.06 8.85586C150.49 8.85586 150.246 9.38981 150.246 10.8585V37.4261C150.246 41.3643 150.18 42.1877 152.529 42.8332L155.567 43.7006V44.9914H137.476V43.7004Z" fill="#002E71"/>
<path d="M178.966 50.2646H55.6689V51.0881H178.966V50.2646Z" fill="#002E71"/>
<path d="M31.5924 25.1216C31.5924 28.748 28.6657 31.6854 25.0299 31.6854C21.4165 31.6854 18.4897 28.748 18.4897 25.1216C18.4897 21.4943 21.4165 18.5574 25.0299 18.5574C28.6657 18.5574 31.5924 21.4943 31.5924 25.1216Z" fill="#FC6C25"/>
<path d="M14.1451 14.1513H0.000976562L2.86045 22.9407H9.91056V22.9184C17.0496 22.9184 22.8358 17.1111 22.8579 9.92371V2.87001L14.1451 0V14.1513Z" fill="#FC6C25"/>
<path d="M14.1 36.0687V50.2423L22.8572 47.3944V40.3184H22.8349C22.8349 33.1535 17.0488 27.3462 9.88791 27.3237H2.85965L0 36.0685H14.1V36.0687Z" fill="#FC6C25"/>
<path d="M35.9374 36.091H50.0822L47.1995 27.3237H40.1723H40.1499C33.0112 27.3464 27.2246 33.1537 27.2246 40.3184V40.3413V47.3725L35.9374 50.2425V36.091Z" fill="#FC6C25"/>
<path d="M35.96 14.1962V0.0227051L27.2246 2.87058V9.94607C27.2468 17.1112 33.0335 22.9188 40.1721 22.9404H40.1941H47.2L50.082 14.1963H35.96V14.1962Z" fill="#FC6C25"/>
<path d="M175.741 6.29695C177.094 6.29695 178.202 7.38732 178.202 8.94504C178.202 10.4801 177.094 11.593 175.741 11.593V12.2158C177.537 12.2158 179 10.7473 179 8.94504C179 7.1206 177.537 5.65178 175.741 5.65178V6.29695ZM175.741 9.43419V8.65567H175.764C176.185 8.65567 176.517 8.58891 176.517 8.09976C176.517 7.65455 176.118 7.58761 175.785 7.58761H175.741V7.05367H175.852C176.739 7.05367 177.226 7.36501 177.226 8.14421C177.226 8.7892 176.85 9.10088 176.251 9.14534L177.249 10.7916H176.54L175.741 9.43419ZM175.741 11.5928C174.368 11.5928 173.258 10.4801 173.258 8.94487C173.258 7.38715 174.367 6.29677 175.741 6.29677V5.65161C173.924 5.65161 172.46 7.12043 172.46 8.94487C172.46 10.7472 173.924 12.2156 175.741 12.2156V11.5928ZM175.741 7.05349V7.58744H175.165V8.65567H175.741V9.43419L175.586 9.18944H175.165V10.7914H174.477V7.05349H175.741Z" fill="#002E71"/>
<path d="M58.6415 67.6945C57.2556 67.6945 56.3973 67.301 56.0812 67.1199C55.7949 66.7873 55.5991 65.6989 55.5991 64.6709C55.7042 64.4742 56.0506 64.4593 56.1714 64.6252C56.4724 65.608 57.4817 66.9984 58.7623 66.9984C59.8766 66.9984 60.3885 66.2276 60.3885 65.4715C60.3885 64.2476 59.2438 63.5218 58.3402 63.068C57.2556 62.5239 56.0661 61.6174 56.0661 60.1201C56.0506 58.4122 57.3764 57.2329 59.5604 57.2329C60.0575 57.2329 60.6751 57.2935 61.2773 57.4747C61.4733 57.5355 61.6088 57.5654 61.7897 57.5957C61.9106 57.9284 62.0608 58.7448 62.0608 59.7573C61.9856 59.9388 61.6088 59.9543 61.4733 59.8036C61.2173 59.0318 60.5695 57.9284 59.4852 57.9284C58.4909 57.9284 57.9486 58.5783 57.9486 59.335C57.9486 60.03 58.5663 60.6647 59.3195 61.0574L60.3133 61.5867C61.2474 62.0853 62.4371 62.9625 62.4371 64.6252C62.4371 66.4848 60.9158 67.6945 58.6415 67.6945Z" fill="#002E71"/>
<path d="M74.7283 61.4051C74.7283 61.8292 74.7434 61.859 75.1498 61.859H76.1893C76.9728 61.859 77.1535 61.7533 77.3037 61.0273L77.3792 60.6499C77.4844 60.5291 77.8613 60.5291 77.9367 60.6647C77.9067 61.149 77.8916 61.6929 77.8916 62.2675C77.8916 62.8418 77.9067 63.3862 77.9367 63.8697C77.8613 64.0058 77.4845 64.0209 77.3792 63.8845L77.3037 63.5074C77.1535 62.7814 76.973 62.6602 76.1893 62.6602H75.1498C74.7436 62.6602 74.7283 62.6751 74.7283 63.1293V64.9278C74.7283 65.6236 74.789 66.1076 74.9693 66.3637C75.1649 66.6364 75.4514 66.7567 76.551 66.7567C77.8613 66.7567 78.3735 66.7117 79.2018 65.0035C79.322 64.837 79.6985 64.8978 79.759 65.0788C79.6985 65.8649 79.337 67.0891 79.1267 67.4978C78.3279 67.4669 76.8822 67.452 75.6468 67.452H73.6887C72.966 67.452 72.2279 67.4669 71.098 67.4978C70.9777 67.4072 70.9777 67.0445 71.098 66.9685L71.806 66.8633C72.4837 66.7567 72.574 66.6668 72.574 65.2759V59.6366C72.574 58.2615 72.4837 58.1703 71.806 58.0342L71.4295 57.9589C71.2941 57.8681 71.3093 57.5204 71.4598 57.4299C72.1673 57.4605 72.9059 57.4749 73.6285 57.4749H76.8216C77.7858 57.4749 78.6443 57.4605 78.8403 57.4299C78.8549 57.6714 78.9609 58.7602 79.0359 59.7727C78.9753 59.9395 78.6295 59.9694 78.4785 59.8331C78.3128 59.3043 78.102 58.8512 77.9064 58.6394C77.6203 58.3518 77.1678 58.1705 76.4304 58.1705H75.2253C74.7281 58.1705 74.7281 58.2009 74.7281 58.7604V61.4051H74.7283Z" fill="#002E71"/>
<path d="M97.7582 65.7444C97.7582 66.3789 97.7881 66.6813 98.0742 66.742C98.1344 66.8025 98.1196 67.0591 98.0291 67.1047C97.7735 67.15 97.3815 67.1955 96.975 67.3316C96.448 67.4979 95.1523 67.6943 94.3085 67.6943C93.2848 67.6943 92.4112 67.5877 91.3415 67.165C89.5791 66.4544 88.374 64.7764 88.374 62.5997C88.374 60.7099 89.2178 59.0466 91.0251 58.0342C92.0495 57.4745 93.2695 57.2327 94.5496 57.2327C96.2216 57.2327 97.0502 57.5952 97.5319 57.5952C97.5773 58.0488 97.5925 59.1074 97.743 60.0297C97.6825 60.1959 97.2761 60.2113 97.1706 60.0603C96.6885 58.639 95.7402 57.9285 94.339 57.9285C91.9442 57.9285 90.7841 59.9231 90.7841 62.3121C90.7841 64.4739 91.5224 65.7586 92.5012 66.4242C93.2243 66.9078 94.0075 66.9983 94.5651 66.9983C95.4233 66.9983 95.6041 66.8322 95.6041 65.8494V64.8972C95.6041 64.0807 95.5138 63.9906 94.791 63.8842L94.1279 63.7941C93.9619 63.703 93.9619 63.3556 94.1279 63.2648C95.1974 63.2948 95.9355 63.3103 96.6736 63.3103C97.3967 63.3103 98.1341 63.2948 98.6459 63.2648C98.7671 63.3556 98.7671 63.703 98.6459 63.7941L98.2998 63.8545C97.8485 63.9302 97.758 64.0809 97.758 64.8974V65.7444H97.7582Z" fill="#002E71"/>
<path d="M108.452 59.6523C108.452 58.2465 108.362 58.1555 107.684 58.0192L107.308 57.9439C107.187 57.8536 107.172 57.5205 107.338 57.4297C108.061 57.4602 108.814 57.4752 109.537 57.4752C110.275 57.4752 111.013 57.4602 111.736 57.4297C111.856 57.5205 111.856 57.8536 111.736 57.9439L111.375 58.0045C110.697 58.1255 110.606 58.2465 110.606 59.6525V63.1445C110.606 64.9131 110.802 66.8632 113.091 66.8632C115.02 66.8632 115.607 65.1706 115.607 63.0992V61.2698C115.607 60.0455 115.547 58.8964 115.381 58.5034C115.245 58.1862 114.914 58.0953 114.507 58.0196L114.1 57.9442C113.98 57.8232 114.011 57.5208 114.1 57.43C114.914 57.4606 115.501 57.4755 116.118 57.4755C116.677 57.4755 117.233 57.4606 117.806 57.43C117.896 57.5208 117.926 57.8232 117.806 57.9442L117.534 58.0048C117.143 58.0954 116.857 58.1866 116.721 58.5036C116.556 58.8966 116.496 60.0457 116.496 61.2699V62.9631C116.496 64.3838 116.36 65.6841 115.531 66.6066C114.869 67.3172 113.769 67.6946 112.549 67.6946C111.404 67.6946 110.38 67.513 109.567 66.8483C108.783 66.1985 108.452 65.0795 108.452 63.4316V59.6523H108.452Z" fill="#002E71"/>
<path d="M127.657 59.9238C127.657 58.4121 127.626 58.2461 126.994 58.1553L126.587 58.0948C126.436 58.0194 126.436 57.6413 126.617 57.5655C127.747 57.4898 128.922 57.4297 130.353 57.4297C131.633 57.4297 132.732 57.6264 133.305 57.9741C134.178 58.4878 134.63 59.2438 134.63 60.2111C134.63 61.5571 133.727 62.1312 133.034 62.4787C132.883 62.5543 132.883 62.6452 132.958 62.8114C133.953 64.8368 134.57 65.9707 135.293 66.5907C135.684 66.9084 136.076 66.9986 136.302 67.0137C136.438 67.0898 136.438 67.3163 136.363 67.4073C136.122 67.513 135.64 67.5436 135.173 67.5436C133.787 67.5436 132.913 67.0446 132.25 65.9556C131.769 65.1551 131.422 64.414 131.076 63.6127C130.895 63.2046 130.654 63.0839 130.278 63.0839C129.75 63.0839 129.72 63.1139 129.72 63.4162V65.2756C129.72 66.6665 129.811 66.7719 130.488 66.8936L130.895 66.9688C131.001 67.0446 131.001 67.4075 130.895 67.4981C130.096 67.4672 129.404 67.4526 128.68 67.4526C127.928 67.4526 127.265 67.4672 126.482 67.4981C126.362 67.4075 126.362 67.0446 126.482 66.9688L126.889 66.8936C127.566 66.7719 127.657 66.6667 127.657 65.2756V59.9238ZM129.72 61.8439C129.72 62.3732 129.766 62.4183 130.654 62.4183C131.196 62.4183 131.513 62.2826 131.799 61.9947C132.055 61.7378 132.341 61.2543 132.341 60.3622C132.341 59.0017 131.543 58.1251 130.368 58.1251C129.75 58.1251 129.72 58.1703 129.72 58.8959V61.8439H129.72Z" fill="#002E71"/>
<path d="M154.738 62.4185C154.738 65.7141 152.539 67.6946 149.301 67.6946C146.273 67.6946 144.074 65.699 144.074 62.5398C144.074 59.5459 146.303 57.2332 149.451 57.2332C152.584 57.2332 154.738 59.3499 154.738 62.4185ZM149.331 57.9286C147.478 57.9286 146.484 59.6676 146.484 62.1921C146.484 64.0363 147.132 66.9993 149.587 66.9993C151.56 66.9993 152.328 65.0638 152.328 62.615C152.328 60.0302 151.198 57.9286 149.331 57.9286Z" fill="#002E71"/>
<path d="M166.712 67.6945C165.326 67.6945 164.468 67.301 164.152 67.1199C163.866 66.7873 163.669 65.6989 163.669 64.6709C163.775 64.4742 164.122 64.4593 164.242 64.6252C164.543 65.608 165.553 66.9984 166.833 66.9984C167.947 66.9984 168.459 66.2276 168.459 65.4715C168.459 64.2476 167.315 63.5218 166.412 63.068C165.326 62.5239 164.136 61.6174 164.136 60.1201C164.122 58.4122 165.447 57.2329 167.631 57.2329C168.128 57.2329 168.746 57.2935 169.348 57.4747C169.544 57.5355 169.679 57.5654 169.86 57.5957C169.981 57.9284 170.131 58.7448 170.131 59.7573C170.056 59.9388 169.679 59.9543 169.544 59.8036C169.288 59.0318 168.64 57.9284 167.556 57.9284C166.562 57.9284 166.019 58.5783 166.019 59.335C166.019 60.03 166.637 60.6647 167.39 61.0574L168.384 61.5867C169.318 62.0853 170.508 62.9625 170.508 64.6252C170.508 66.4848 168.987 67.6945 166.712 67.6945Z" fill="#002E71"/>
</svg>
