<?xml version="1.0" encoding="utf-8"?>
<!-- Generator: Adobe Illustrator 17.0.0, SVG Export Plug-In . SVG Version: 6.00 Build 0)  -->
<!DOCTYPE svg PUBLIC "-//W3C//DTD SVG 1.1//EN" "http://www.w3.org/Graphics/SVG/1.1/DTD/svg11.dtd">
<svg version="1.1" id="Layer_1" xmlns="http://www.w3.org/2000/svg" xmlns:xlink="http://www.w3.org/1999/xlink" x="0px" y="0px"
	 width="472.535px" height="53.731px" viewBox="0 0 472.535 53.731" enable-background="new 0 0 472.535 53.731"
	 xml:space="preserve">
<g>
	<path fill="#002D73" d="M464.947,11.735c-4.233,0-7.641,3.408-7.641,7.64c0,4.181,3.407,7.588,7.641,7.588
		c4.182,0,7.588-3.407,7.588-7.588C472.535,15.144,469.129,11.735,464.947,11.735z M464.947,25.518c-3.2,0-5.782-2.581-5.782-6.143
		c0-3.614,2.582-6.144,5.782-6.144c3.148,0,5.729,2.529,5.729,6.144C470.677,22.937,468.096,25.518,464.947,25.518z"/>
	<path fill="#002D73" d="M468.405,17.518c0-1.807-1.137-2.53-3.2-2.53h-0.258h-2.942v8.673h1.601v-3.717h0.98l0.362,0.566
		l1.857,3.15h1.652l-2.323-3.819C467.528,19.737,468.405,19.014,468.405,17.518z M464.947,18.704h-1.342v-2.478h1.342h0.101
		c0.775,0,1.705,0.154,1.705,1.188c0,1.135-0.775,1.29-1.755,1.29H464.947z"/>
</g>
<path fill="#002D73" d="M37.483,3.027l-1.258-0.816c-3.189,1.426-5.685,4.314-7.483,8.674c-1.763,5.074-3.523,10.149-5.28,15.221
	c-2.728,7.711-4.446,11.568-5.157,11.568c-0.336-0.127-0.611-0.251-0.818-0.377c-1.177-1.172-2.938-6.495-5.281-15.972
	c-0.757-3.102-1.516-6.223-2.268-9.371C8.471,7.177,6.817,4.785,4.972,4.785c-0.42,0-0.921,0.127-1.508,0.38
	C2.708,5.246,1.932,5.396,1.135,5.603C0.337,5.983-0.04,7.01,0.003,8.685c0.043,1.175,0.399,2.475,1.069,3.899l2.2,4.526
	c1.258,2.599,2.701,8.198,4.341,16.791c1.384,6.622,2.429,11.586,3.142,14.899c0.753,2.477,1.95,3.713,3.581,3.713
	c1.05-0.206,2.561-0.732,4.533-1.573c2.515-1.09,4.211-2.554,5.092-4.402c1.421-3.099,3.27-8.781,5.533-17.041
	c2.179-7.836,4.487-14.145,6.919-18.924c1.715-1.886,2.578-3.626,2.578-5.22c-0.127-0.627-0.276-1.068-0.443-1.319
	C38.215,3.573,37.86,3.236,37.483,3.027z"/>
<path fill="#002D73" d="M47.245,42.284c0-0.838,0.127-1.783,0.385-2.832l0.833-6.803c-0.083-1.26-1.047-2.685-2.892-4.283
	c-1.592,0.928-2.54,1.489-2.828,1.703c-1.007,4.702-1.513,7.49-1.513,8.375c0-0.21,0.078,0.986,0.229,3.587
	c0.255,3.526,0.422,5.459,0.509,5.792c0.545,1.597,2.081,2.98,4.607,4.158c0.292-0.167,0.862-0.261,1.705-0.282
	c0.839-0.023,1.349-0.136,1.516-0.348c0.124-0.715,0.189-1.345,0.189-1.887c0-1.092-0.455-2.237-1.371-3.432
	C47.7,44.834,47.245,43.585,47.245,42.284z"/>
<path fill="#002D73" d="M49.343,5.176c-0.251,0-0.523,0.046-0.816,0.127c-2.309,0.46-3.457,1.299-3.457,2.512
	c0-0.126,0.04,0.4,0.123,1.567c0.084,0.921,0.399,1.824,0.946,2.702c0.833,1.255,1.987,1.816,3.455,1.692
	c0.883-0.039,1.448-0.124,1.699-0.25c0.624-0.332,0.899-1.063,0.815-2.196c-0.039-1.129-0.083-2.26-0.124-3.392
	C51.607,6.096,50.727,5.176,49.343,5.176z"/>
<path fill="#002D73" d="M75.602,26.166c-0.127,0.044-0.326,0.02-0.598-0.06c-0.272-0.087-0.471-0.127-0.595-0.127
	c-0.84,0-1.406,1.152-1.699,3.458c0,0.711-0.859,2.663-2.578,5.848c-1.72,3.188-3.018,5.158-3.899,5.909
	c-0.501-0.421-1.174-1.442-2.014-3.071c-0.838-1.633-1.341-2.947-1.508-3.954c-0.043-0.332-0.275-1.212-0.693-2.635
	c-0.209-0.837-0.271-2.089-0.186-3.765c-0.883-1.462-1.534-2.194-1.949-2.194c-0.086,0-0.202,0.03-0.348,0.092
	c-0.147,0.067-0.264,0.097-0.344,0.097c-1.344,0-2.392,0.648-3.147,1.947c-0.544,0.96-0.816,1.946-0.816,2.946
	c0,2.096,1.133,5.798,3.398,11.111c2.639,6.153,5.092,9.223,7.357,9.223c2.975,0.045,5.908-2.912,8.803-8.859
	c2.429-4.944,3.711-8.779,3.834-11.505c0.081-1.924-0.076-3.182-0.471-3.77C77.75,26.271,76.903,26.038,75.602,26.166z"/>
<path fill="#002D73" d="M90.881,42.284c0-0.838,0.132-1.783,0.39-2.832l0.832-6.803c-0.086-1.26-1.047-2.685-2.893-4.283
	c-1.593,0.928-2.538,1.489-2.829,1.703c-1.007,4.702-1.508,7.49-1.508,8.375c0-0.21,0.077,0.986,0.229,3.587
	c0.251,3.526,0.417,5.459,0.504,5.792c0.546,1.597,2.081,2.98,4.608,4.158c0.296-0.167,0.864-0.261,1.704-0.282
	c0.841-0.023,1.347-0.136,1.518-0.348c0.123-0.715,0.187-1.345,0.187-1.887c0-1.092-0.455-2.237-1.371-3.432
	C91.339,44.834,90.881,43.585,90.881,42.284z"/>
<path fill="#002D73" d="M92.984,5.176c-0.253,0-0.525,0.046-0.819,0.127c-2.305,0.46-3.458,1.299-3.458,2.512
	c0-0.126,0.044,0.4,0.127,1.567c0.084,0.921,0.401,1.824,0.945,2.702c0.835,1.255,1.988,1.816,3.455,1.692
	c0.878-0.039,1.447-0.124,1.699-0.25c0.628-0.332,0.899-1.063,0.814-2.196c-0.042-1.129-0.083-2.26-0.124-3.392
	C95.245,6.096,94.363,5.176,92.984,5.176z"/>
<path fill="#002D73" d="M121.776,24.966c-2.393-0.967-4.319-1.447-5.783-1.447c-3.148,0-5.539,0.617-7.173,1.855
	c-1.636,1.238-3.624,4.018-5.971,8.339c-0.087,0-0.303-0.168-0.661-0.507c-0.357-0.335-0.724-0.5-1.098-0.5
	c-0.842,0-1.387,0.298-1.638,0.88c-0.126,0.375-0.19,1.171-0.19,2.385c0,1.678,0.358,4.041,1.07,7.095
	c0.712,3.061,1.406,5.189,2.072,6.407h1.892c1.421-1.468,2.344-2.723,2.765-3.771c0.04-0.083,0.271-1.86,0.692-5.336
	c0.334-3.225,1.025-5.694,2.074-7.411c1.468-2.512,3.712-3.768,6.73-3.768c0.71,0,2.029,0.17,3.961,0.505
	c1.929,0.333,3.313,0.5,4.149,0.5c1.17,0,1.988-0.232,2.45-0.693C126.617,27.74,124.837,26.227,121.776,24.966z"/>
<path fill="#002D73" d="M169.44,46.977c-0.775-0.538-1.539-0.815-2.295-0.815c-0.254,0-0.544,0.058-0.877,0.169
	c-0.337,0.116-0.63,0.173-0.881,0.173c-2.351,0-4.466-0.466-6.355-1.393c-2.388-1.173-3.961-2.922-4.714-5.236
	c2.18-0.754,3.543-1.135,4.091-1.135c0.211,0,0.393,0.092,0.536,0.267c0.147,0.179,0.406,0.263,0.79,0.263
	c2.309,0,4.449-1.271,6.42-3.829c1.805-2.343,2.708-4.541,2.708-6.593c0-2.094-0.692-3.809-2.076-5.147
	c-1.383-1.338-3.169-2.01-5.351-2.01c-3.653,0-6.838,2.037-9.569,6.104c-2.266,3.48-3.398,6.732-3.398,9.749
	c0,4.57,1.741,8.073,5.218,10.505c2.939,2.011,6.542,3.018,10.817,3.018c0.585,0,1.657-0.227,3.208-0.691
	c1.927-0.584,2.893-1.176,2.893-1.758C170.605,48.071,170.216,47.524,169.44,46.977z M157.28,29.576
	c1.638-1.756,3.016-2.634,4.14-2.634c0.338,0,0.651,0.065,0.946,0.189c0.29,0.127,0.481,0.186,0.559,0.186v3.075
	c0.044,0.711-0.891,1.589-2.819,2.633c-1.632,0.918-2.635,1.378-3.01,1.378c-0.756,0-1.548-0.354-2.384-1.063
	C155.043,32.377,155.899,31.122,157.28,29.576z"/>
<path fill="#002D73" d="M187.977,35.967c-3.056-3.474-4.63-6.049-4.71-7.728c0.34-0.753,1.046-1.129,2.133-1.129
	c0.338,0,0.856,0.041,1.546,0.124c0.689,0.086,1.185,0.125,1.481,0.125c0.958,0,1.523-0.394,1.695-1.194
	c0.167-0.925-0.107-1.867-0.819-2.836c-0.798-1.135-1.905-1.678-3.332-1.638c-2.307,0.043-4.261,0.965-5.85,2.773
	c-1.465,1.633-2.177,3.351-2.136,5.155c0.083,1.931,1.64,4.717,4.682,8.364c3.038,3.651,4.558,5.747,4.558,6.293
	c0,0.208-0.058,0.359-0.188,0.438c-3.059,3.06-5.699,4.509-7.923,4.34c-0.47-0.038-0.78-0.076-0.96-0.117
	c-0.626,0.213-1.242,0.646-1.867,1.308c-0.632,0.664-0.862,1.206-0.695,1.622c0.297,0.71,0.882,1.102,1.759,1.188
	c0.674,0.082,1.344,0.165,2.018,0.249c0.289,0.083,0.646,0.123,1.064,0.123c2.312,0,4.931-1.023,7.865-3.077
	c3.227-2.219,4.841-4.503,4.841-6.848c0-0.332-0.043-0.668-0.124-1.005C192.842,41.789,191.167,39.608,187.977,35.967z"/>
<path fill="#002D73" d="M178.11,48.931c0.009,0.002,0.033,0.005,0.045,0.007c0.006-0.002,0.012-0.005,0.018-0.007H178.11z"/>
<path fill="#002D73" d="M223.562,42.284c0-0.838,0.124-1.783,0.384-2.832l0.833-6.803c-0.083-1.26-1.049-2.685-2.892-4.283
	c-1.595,0.928-2.534,1.489-2.828,1.703c-1.006,4.702-1.511,7.49-1.511,8.375c0-0.21,0.08,0.986,0.23,3.587
	c0.254,3.526,0.419,5.459,0.508,5.792c0.541,1.597,2.079,2.98,4.605,4.158c0.293-0.167,0.864-0.261,1.706-0.282
	c0.842-0.023,1.347-0.136,1.514-0.348c0.124-0.715,0.188-1.345,0.188-1.887c0-1.092-0.453-2.237-1.366-3.432
	C224.016,44.834,223.562,43.585,223.562,42.284z"/>
<path fill="#002D73" d="M225.659,5.176c-0.248,0-0.523,0.046-0.814,0.127c-2.311,0.46-3.457,1.299-3.457,2.512
	c0-0.126,0.035,0.4,0.124,1.567c0.087,0.921,0.398,1.824,0.942,2.702c0.84,1.255,1.993,1.816,3.454,1.692
	c0.88-0.039,1.444-0.124,1.698-0.25c0.632-0.332,0.899-1.063,0.819-2.196c-0.043-1.129-0.087-2.26-0.124-3.392
	C227.928,6.096,227.043,5.176,225.659,5.176z"/>
<path fill="#002D73" d="M257.089,30.321c-3.016-3.818-5.553-5.726-7.603-5.726c-0.632,0-1.595,0.232-2.9,0.692
	c-1.631,0.547-2.805,1.194-3.515,1.948c-0.253-1.052-0.486-2.127-0.697-3.218c-0.375-1.347-1.13-2.022-2.26-2.022
	c-2.312,0-4.108,3.148-5.415,9.439c-0.875,4.235-1.312,7.867-1.312,10.888c0,0.124-0.023,0.535-0.065,1.227
	c-0.044,0.691-0.064,1.268-0.064,1.732c0,3.901,1.174,5.848,3.521,5.848c1.929,0,3.479-1.527,4.656-4.588
	c0.882-2.809,1.738-5.639,2.58-8.49c1.13-3.059,2.618-4.593,4.463-4.593c1.842,0,3.748,1.767,5.72,5.291
	c0.124,0.213,1.638,3.462,4.535,9.759c1.631,3.481,2.966,5.224,4.025,5.224c1.334,0,2.403-0.579,3.196-1.731
	c0.799-1.151,1.202-2.462,1.202-3.932c0-0.754-1.029-3.021-3.084-6.797C261.766,36.909,259.438,33.258,257.089,30.321z"/>
<path fill="#002D73" d="M291.408,42.389c-1.973,0.634-3.157,0.942-3.55,0.942c-0.402,0-0.748,0.066-1.04,0.191
	c-0.294,0.127-0.62,0.189-0.975,0.189c-0.354,0-0.807,0.019-1.347,0.062h-1.383c-3.146,0-4.714-1.719-4.714-5.157
	c0-3.521,1.196-5.913,3.583-7.172c2.18-0.63,4.356-1.257,6.533-1.89c2.39-0.748,3.586-2.219,3.586-4.4
	c0-0.544-0.296-1.192-0.882-1.949c-0.588-0.756-1.09-1.135-1.508-1.135c-4.284,0-8.226,1.448-11.829,4.347
	c-4.065,3.317-6.107,7.455-6.107,12.406c0,3.781,1.001,6.74,2.99,8.879c1.992,2.145,4.705,3.212,8.142,3.212
	c0.879,0,3.268-0.691,7.17-2.083c4.194-1.512,6.752-2.774,7.675-3.784v-2.591c-1.427-0.671-2.373-1.007-2.828-1.007
	C294.548,41.449,293.374,41.765,291.408,42.389z"/>
<path fill="#002D73" d="M325.258,24.966c-2.391-0.967-4.319-1.447-5.784-1.447c-3.146,0-5.538,0.617-7.169,1.855
	c-1.636,1.238-3.624,4.018-5.978,8.339c-0.08,0-0.297-0.168-0.657-0.507c-0.354-0.335-0.721-0.5-1.099-0.5
	c-0.842,0-1.386,0.298-1.634,0.88c-0.127,0.375-0.194,1.171-0.194,2.385c0,1.678,0.363,4.041,1.073,7.095
	c0.713,3.061,1.407,5.189,2.073,6.407h1.885c1.428-1.468,2.351-2.723,2.771-3.771c0.041-0.083,0.274-1.86,0.692-5.336
	c0.335-3.225,1.026-5.694,2.075-7.411c1.465-2.512,3.712-3.768,6.727-3.768c0.715,0,2.029,0.17,3.964,0.505
	c1.929,0.333,3.313,0.5,4.146,0.5c1.173,0,1.994-0.232,2.455-0.693C330.1,27.74,328.321,26.227,325.258,24.966z"/>
<path fill="#002D73" d="M354.69,46.977c-0.776-0.538-1.546-0.815-2.293-0.815c-0.253,0-0.551,0.058-0.885,0.169
	c-0.334,0.116-0.623,0.173-0.883,0.173c-2.35,0-4.465-0.466-6.351-1.393c-2.391-1.173-3.959-2.922-4.716-5.236
	c2.186-0.754,3.548-1.135,4.094-1.135c0.21,0,0.385,0.092,0.529,0.267c0.159,0.179,0.419,0.263,0.794,0.263
	c2.309,0,4.448-1.271,6.426-3.829c1.805-2.343,2.709-4.541,2.709-6.593c0-2.094-0.694-3.809-2.077-5.147
	c-1.385-1.338-3.169-2.01-5.354-2.01c-3.652,0-6.842,2.037-9.565,6.104c-2.27,3.48-3.405,6.732-3.405,9.749
	c0,4.57,1.744,8.073,5.225,10.505c2.935,2.011,6.538,3.018,10.814,3.018c0.588,0,1.661-0.227,3.212-0.691
	c1.923-0.584,2.892-1.176,2.892-1.758C355.854,48.071,355.459,47.524,354.69,46.977z M342.529,29.576
	c1.632-1.756,3.01-2.634,4.143-2.634c0.335,0,0.651,0.065,0.938,0.189c0.294,0.127,0.484,0.186,0.564,0.186v3.075
	c0.044,0.711-0.899,1.589-2.821,2.633c-1.633,0.918-2.639,1.378-3.011,1.378c-0.755,0-1.546-0.354-2.388-1.063
	C340.29,32.377,341.145,31.122,342.529,29.576z"/>
<path fill="#002D73" d="M368.598,38.029c0-0.843,0.13-1.785,0.384-2.836l0.839-6.801c-0.088-1.259-1.051-2.685-2.892-4.279
	c-1.595,0.923-2.543,1.485-2.835,1.697c-1.006,4.703-1.508,7.495-1.508,8.375c0-0.208,0.075,0.989,0.233,3.585
	c0.246,3.531,0.412,5.464,0.499,5.799c0.551,1.597,2.084,2.98,4.609,4.154c0.298-0.165,0.868-0.261,1.704-0.28
	c0.845-0.024,1.353-0.14,1.517-0.347c0.124-0.717,0.191-1.347,0.191-1.892c0-1.09-0.458-2.234-1.367-3.434
	C369.056,40.58,368.598,39.331,368.598,38.029z"/>
<path fill="#002D73" d="M396.825,26.792c-1.757,0-3.244,0.628-4.461,1.885c-0.545,0.59-1.464,1.952-2.768,4.094
	c-1.09,1.798-2.153,3.016-3.205,3.646c-1.051-5.787-1.565-11.259-1.565-16.413V8.933c0-0.04,0.08-0.533,0.263-1.479
	c0.178-0.941,0.264-1.791,0.264-2.548c0-2.345-0.842-3.98-2.517-4.906c-0.795,0.801-1.545,2.311-2.26,4.533
	c-0.669,2.053-1.01,3.563-1.01,4.525v20.062c0-0.04,0.254,0.942,0.762,2.956c0.54,2.221,0.894,4.483,1.066,6.79
	c0.079,0.88,0.009,2.203-0.222,3.964c-0.23,1.76-0.305,2.935-0.222,3.521c0.124,0.797,0.691,1.551,1.698,2.266
	c0.875,0.627,1.675,0.941,2.384,0.941c0.378,0,0.669-0.072,0.88-0.219c0.21-0.148,0.504-0.223,0.881-0.223
	c0.125,0,1.234,0.397,3.33,1.189c2.512,0.875,4.853,1.566,7.035,2.068c3.22,0.755,6.262,1.129,9.107,1.129
	c1.637,0,3.284-1.008,4.965-3.018c1.669-2.012,2.511-3.771,2.511-5.282c0-4.229-1.406-8.188-4.212-11.876
	C406.217,28.971,401.982,26.792,396.825,26.792z M407.185,46.017c-0.628,0.627-1.867,0.941-3.716,0.941
	c-2.22,0-6.521-1.212-12.893-3.646v-1.824c-0.049-0.916,1.066-2.584,3.333-4.994c2.263-2.41,3.689-3.614,4.274-3.614
	c2.059,0,4.155,1.383,6.297,4.147c2.01,2.599,3.02,5.027,3.02,7.29C407.501,44.987,407.392,45.555,407.185,46.017z"/>
<path fill="#002D73" d="M422.442,23.791c0-1.594,0.103-4.007,0.315-7.237c0.207-3.228,0.316-5.517,0.316-6.862
	c0-4.531-0.905-6.796-2.704-6.796c-2.639-0.084-4.045,3.798-4.209,11.643c-0.047,3.692,0.375,9.63,1.254,17.812
	c1.26,11.371,2.936,17.078,5.027,17.118c0.464,0,1.096-0.229,1.887-0.69c0.965-0.589,1.449-1.238,1.449-1.951
	c0.043-0.589-0.985-6.921-3.082-19.01C422.526,26.688,422.442,25.343,422.442,23.791z"/>
<path fill="#002D73" d="M453.158,46.977c-0.775-0.538-1.54-0.815-2.292-0.815c-0.253,0-0.551,0.058-0.885,0.169
	c-0.334,0.116-0.629,0.173-0.877,0.173c-2.35,0-4.466-0.466-6.352-1.393c-2.395-1.173-3.964-2.922-4.717-5.236
	c2.18-0.754,3.544-1.135,4.092-1.135c0.21,0,0.383,0.092,0.536,0.267c0.15,0.179,0.406,0.263,0.784,0.263
	c2.312,0,4.454-1.271,6.427-3.829c1.805-2.343,2.709-4.541,2.709-6.593c0-2.094-0.694-3.809-2.081-5.147
	c-1.378-1.338-3.165-2.01-5.345-2.01c-3.653,0-6.842,2.037-9.571,6.104c-2.264,3.48-3.399,6.732-3.399,9.749
	c0,4.57,1.738,8.073,5.219,10.505c2.934,2.011,6.538,3.018,10.814,3.018c0.594,0,1.661-0.227,3.212-0.691
	c1.929-0.584,2.892-1.176,2.892-1.758C454.323,48.071,453.936,47.524,453.158,46.977z M440.998,29.576
	c1.632-1.756,3.016-2.634,4.143-2.634c0.331,0,0.645,0.065,0.942,0.189c0.289,0.127,0.479,0.186,0.565,0.186v3.075
	c0.043,0.711-0.899,1.589-2.822,2.633c-1.638,0.918-2.639,1.378-3.017,1.378c-0.754,0-1.545-0.354-2.381-1.063
	C438.763,32.377,439.619,31.122,440.998,29.576z"/>
<path fill="#002D73" d="M372.195,2.599c-0.963,0.044-1.805,0.714-2.517,2.009c-2.056,3.767-3.102,5.69-3.14,5.774
	c-2.18,2.931-3.674,4.874-4.463,5.835c-1.177,1.465-1.768,2.363-1.768,2.701c0.087,0.417,0.297,0.92,0.632,1.502
	c0.499,0.627,1.15,0.942,1.948,0.942c2.472,0,5.157-1.903,8.05-5.711c2.895-3.807,4.321-7.172,4.278-10.103
	C375.173,3.538,374.164,2.556,372.195,2.599z"/>
</svg>
