<?xml version="1.0" encoding="utf-8"?>
<!-- Generator: Adobe Illustrator 16.0.3, SVG Export Plug-In . SVG Version: 6.00 Build 0)  -->
<!DOCTYPE svg PUBLIC "-//W3C//DTD SVG 1.1//EN" "http://www.w3.org/Graphics/SVG/1.1/DTD/svg11.dtd">
<svg version="1.1" id="Capa_1" xmlns="http://www.w3.org/2000/svg" xmlns:xlink="http://www.w3.org/1999/xlink" x="0px" y="0px"
	 width="179px" height="68px" viewBox="0 0 179 68" enable-background="new 0 0 179 68" xml:space="preserve">
<rect x="37.095" y="40.575" fill="none" width="137.572" height="16.566"/>
<text transform="matrix(1 0 0 1 37.0947 52.5889)" font-family="'TimesNewRomanPSMT'" font-size="17.2865">atrimonial Advisor</text>
<text transform="matrix(1.0185 0 0 1 1.2905 45.2637)" fill="#FD5319" stroke="#FD5319" stroke-miterlimit="10" font-family="'MyriadPro-Regular'" font-size="48.4379">C</text>
<rect x="37.161" y="51.343" fill="#0A1250" width="0" height="0.781"/>
<rect x="26" y="54" fill="#0A1250" width="142" height="3"/>
<polygon fill="#0A1250" stroke="#0A1250" stroke-miterlimit="10" points="167.5,51.82 167.5,58.826 172.335,55.323 "/>
<g>
	<path fill="#0A1250" stroke="#0A1250" stroke-miterlimit="10" d="M34.407,41.381v8.336c0,1.801,0.197,2.92,0.591,3.355
		C35.532,53.691,36.341,54,37.425,54h1.097h-12.26h1.076c1.21,0,2.075-0.394,2.595-1.182c0.282-0.436,0.422-1.47,0.422-3.102V31.232
		c0-1.801-0.19-2.919-0.57-3.355c-0.548-0.619-1.364-0.929-2.448-0.929h-1.076v-0.781H36.75c2.561,0,4.579,0.263,6.056,0.791
		c1.478,0.528,2.723,1.418,3.735,2.67c1.013,1.251,1.519,2.736,1.519,4.452c0,2.336-0.77,4.234-2.311,5.698
		c-1.54,1.463-3.717,2.194-6.531,2.194c-0.689,0-1.435-0.049-2.237-0.148C36.179,41.727,35.322,41.578,34.407,41.381z M34.407,40.18
		c0.745,0.14,1.406,0.246,1.983,0.316c0.577,0.069,1.069,0.104,1.477,0.104c1.463,0,2.725-0.566,3.788-1.698
		c1.063-1.133,1.593-2.6,1.593-4.399c0-1.238-0.253-2.389-0.76-3.451c-0.506-1.062-1.224-1.857-2.152-2.385
		c-0.929-0.527-1.984-0.79-3.166-0.79c-0.717,0-1.639,0.133-2.764,0.401V40.18z"/>
</g>
</svg>
