<?xml version="1.0" encoding="UTF-8" standalone="no"?>
<svg
   width="16"
   height="16"
   viewBox="0 0 16 16"
   fill="none"
   version="1.1"
   id="svg1123"
   sodipodi:docname="logo_gnp_icono.svg"
   inkscape:version="1.2.2 (732a01da63, 2022-12-09)"
   inkscape:export-filename="logo_gnp_icono.png"
   inkscape:export-xdpi="96"
   inkscape:export-ydpi="96"
   xmlns:inkscape="http://www.inkscape.org/namespaces/inkscape"
   xmlns:sodipodi="http://sodipodi.sourceforge.net/DTD/sodipodi-0.dtd"
   xmlns="http://www.w3.org/2000/svg"
   xmlns:svg="http://www.w3.org/2000/svg">
  <defs
     id="defs1127" />
  <sodipodi:namedview
     id="namedview1125"
     pagecolor="#ffffff"
     bordercolor="#000000"
     borderopacity="0.25"
     inkscape:showpageshadow="2"
     inkscape:pageopacity="0.0"
     inkscape:pagecheckerboard="0"
     inkscape:deskcolor="#d1d1d1"
     showgrid="false"
     inkscape:zoom="20.48"
     inkscape:cx="4.9804688"
     inkscape:cy="8.3496094"
     inkscape:window-width="1366"
     inkscape:window-height="697"
     inkscape:window-x="-8"
     inkscape:window-y="-8"
     inkscape:window-maximized="1"
     inkscape:current-layer="svg1123" />
  <path
     d="m 7.1513896,7.6610834 c 0,-0.1607184 0.028605,-0.2180751 -0.1505584,-0.3137259 L 6.8770046,7.2861929 V 7.1752685 h 1.234826 v 0.1109244 l -0.125804,0.049742 C 7.7992823,7.4124611 7.7992823,7.4334488 7.8031242,7.6610826 l 0.00186,0.9160558 -0.045745,0.043987 c -0.2152706,0.055488 -0.7184063,0.1931669 -1.171912,0.1931669 -1.0404908,0 -1.5530912,-0.5412398 -1.5530912,-1.7117107 0,-1.2585083 0.7241511,-1.8035427 1.6750085,-1.8035427 0.2553804,0 0.7184531,0 1.0404485,0.2734685 0.1067122,0.089916 0.1162356,0.1912764 0.1162356,0.231426 0,0.076518 -0.01523,0.091816 -0.030496,0.1224096 L 7.6049235,6.3758246 h -0.085809 c 0,-0.2218659 -0.2572107,-0.812848 -0.9261277,-0.812848 -0.7756045,0 -0.8136997,0.5431562 -0.8136997,1.4611871 0,0.8032819 0.083841,1.5261968 1.0099605,1.5261968 0.2991995,0 0.3544171,-0.1586915 0.362075,-0.336581 V 7.6610809 Z"
     fill="#002e71"
     id="path8667"
     style="stroke-width:0.0859551" />
  <path
     d="m 8.4205113,8.6364295 0.2210671,-0.0899 C 8.8226246,8.475783 8.8226246,8.3438145 8.8226246,8.0512338 V 5.9416373 c 0,-0.1625757 -0.04577,-0.2428854 -0.171505,-0.3289374 L 8.449091,5.476918 V 5.3659632 h 0.916622 l 0.055269,0.034433 c 0.1009964,0.1357963 0.3105538,0.5010988 0.592572,0.8835987 l 0.97189,1.3273468 c 0.04006,0.055453 0.06094,0.080312 0.08002,0.080312 0.04006,0 0.04006,-0.049742 0.04006,-0.141517 V 5.9454868 c 0,-0.2314359 -0.0038,-0.2773322 -0.200101,-0.3576456 L 10.617728,5.476918 V 5.3659632 h 1.152826 V 5.476918 l -0.146726,0.05544 c -0.215315,0.08608 -0.257261,0.1357962 -0.257261,0.4686131 v 1.9890788 c 0,0.3040815 0.0057,0.6119641 0.0057,0.7171625 l -0.0343,0.040185 h -0.281994 l -0.05527,-0.040185 C 10.954992,8.6517677 10.693862,8.2826231 10.427057,7.9249817 L 9.249418,6.3452191 C 9.184608,6.2591271 9.15418,6.2132446 9.1294253,6.2132446 c -0.045728,0 -0.045728,0.051617 -0.045728,0.1224003 v 1.8054289 c 0,0.2428724 0,0.3194056 0.2115341,0.3901907 L 9.592464,8.6364295 V 8.7473881 H 8.4205133 Z"
     fill="#002e71"
     id="path8669"
     style="stroke-width:0.0859551" />
  <path
     d="M 12.065978,8.636438 12.287055,8.561881 C 12.452862,8.506398 12.458536,8.4146312 12.458536,8.0971154 V 5.9148778 c 0,-0.240963 0,-0.3021578 -0.171481,-0.3576262 L 12.065978,5.476938 V 5.3659852 h 1.667439 c 0.583116,0 1.154802,0.1262514 1.154802,0.8931419 0,0.7019573 -0.52209,1.1361063 -1.337714,1.1361063 -0.03438,0 -0.08003,-0.00574 -0.110539,-0.00574 l -0.07435,-0.1817342 0.03997,-0.040185 c 0.365908,-0.0095 0.809951,-0.160625 0.747119,-0.8701639 -0.0496,-0.55274 -0.20973,-0.6560268 -0.661251,-0.6560268 -0.306858,0 -0.327832,0.045894 -0.327832,0.1721359 v 2.2836117 c 0,0.3385052 -0.0056,0.4092799 0.196236,0.4647639 l 0.261129,0.074557 V 8.7474029 H 12.06598 Z"
     fill="#002e71"
     id="path8671"
     style="stroke-width:0.0859551" />
  <path
     d="M 15.632242,9.2006623 H 5.0342716 v 0.07078 H 15.632242 Z"
     fill="#002e71"
     id="path8673"
     style="stroke-width:0.0859551" />
  <path
     d="m 2.9647827,7.0395015 c 0,0.3117067 -0.251563,0.56419 -0.5640774,0.56419 -0.3105897,0 -0.5621612,-0.2524833 -0.5621612,-0.56419 0,-0.3117838 0.2515715,-0.5642226 0.5621612,-0.5642226 0.3125144,0 0.5640774,0.2524388 0.5640774,0.5642226 z"
     fill="#fc6c25"
     id="path8675"
     style="stroke-width:0.0859551" />
  <path
     d="M 1.4651048,6.0965519 H 0.24935078 L 0.49513536,6.852043 H 1.1011266 v -0.00188 c 0.6136335,0 1.1109853,-0.499166 1.1128849,-1.1169555 V 5.1268784 L 1.4651048,4.8801891 Z"
     fill="#fc6c25"
     id="path8677"
     style="stroke-width:0.0859551" />
  <path
     d="M 1.4612275,7.9804582 V 9.1987468 L 2.2139503,8.9539555 v -0.608217 h -0.00192 c 0,-0.6158549 -0.4973435,-1.1150219 -1.1128557,-1.1169563 H 0.49506049 L 0.24926044,7.9804402 H 1.4612257 Z"
     fill="#fc6c25"
     id="path8679"
     style="stroke-width:0.0859551" />
  <path
     d="M 3.3382563,7.9823737 H 4.5540694 L 4.3062867,7.2287822 H 3.7022664 3.7003454 C 3.0867401,7.2307501 2.5893542,7.729899 2.5893542,8.3457385 v 0.00197 0.6043654 l 0.7489097,0.2466882 z"
     fill="#fc6c25"
     id="path8681"
     style="stroke-width:0.0859551" />
  <path
     d="M 3.3401984,6.1004118 V 4.8821333 l -0.7508488,0.244787 v 0.6081733 c 0.00192,0.6158772 0.4993021,1.1150673 1.112899,1.1169237 h 0.00189 0.6021904 L 4.5540525,6.1004221 H 3.3401999 Z"
     fill="#fc6c25"
     id="path8683"
     style="stroke-width:0.0859551" />
  <path
     d="m 15.355038,5.4214336 c 0.116297,0 0.211534,0.093722 0.211534,0.2276159 0,0.1319464 -0.09524,0.2276064 -0.211534,0.2276064 v 0.05353 c 0.154376,0 0.280126,-0.1262233 0.280126,-0.2811366 0,-0.1568189 -0.12575,-0.2830705 -0.280126,-0.2830705 z m 0,0.2696602 v -0.066918 h 0.002 c 0.03619,0 0.06472,-0.00573 0.06472,-0.047781 0,-0.038268 -0.0343,-0.044022 -0.06292,-0.044022 h -0.0037 V 5.48648 h 0.0095 c 0.07624,0 0.118101,0.026761 0.118101,0.093736 0,0.05544 -0.03233,0.082232 -0.0838,0.086052 l 0.08578,0.1415045 h -0.06094 z m 0,0.1855444 c -0.118015,0 -0.213425,-0.095642 -0.213425,-0.2276022 0,-0.1338941 0.09532,-0.2276184 0.213425,-0.2276184 v -0.055454 c -0.15618,0 -0.282017,0.1262534 -0.282017,0.2830727 0,0.1549188 0.125837,0.2811343 0.282017,0.2811343 z m 0,-0.3901757 v 0.045896 h -0.04951 v 0.091817 h 0.04951 v 0.066918 l -0.01333,-0.021039 h -0.03619 v 0.1376961 h -0.05914 V 5.4864625 Z"
     fill="#002e71"
     id="path8685"
     style="stroke-width:0.0859551" />
  <path
     d="m 5.2897815,10.698844 c -0.1191253,0 -0.1928997,-0.03382 -0.2200699,-0.04939 -0.02461,-0.02859 -0.041438,-0.122141 -0.041438,-0.210504 0.00902,-0.0169 0.038808,-0.01819 0.049191,-0.0039 0.025873,0.08447 0.112627,0.203987 0.2227007,0.203987 0.095779,0 0.1397798,-0.06625 0.1397798,-0.131245 0,-0.105198 -0.098392,-0.167584 -0.1760615,-0.20659 -0.093227,-0.04677 -0.1954705,-0.124685 -0.1954705,-0.253386 -0.00133,-0.1468005 0.1126273,-0.2481666 0.300352,-0.2481666 0.042728,0 0.095814,0.00525 0.1475757,0.020785 0.016847,0.00525 0.028494,0.00778 0.044043,0.010402 0.010393,0.028591 0.023302,0.098769 0.023302,0.1857986 -0.00646,0.0156 -0.038852,0.01693 -0.050499,0.0039 -0.022004,-0.066337 -0.077686,-0.1611833 -0.1708866,-0.1611833 -0.085466,0 -0.1320773,0.05586 -0.1320773,0.1209035 0,0.059739 0.053094,0.1142938 0.117835,0.1480478 l 0.085421,0.0455 c 0.080291,0.04285 0.1825513,0.118257 0.1825513,0.261174 0,0.159841 -0.130763,0.263821 -0.3262497,0.263821 z"
     fill="#002e71"
     id="path8687"
     style="stroke-width:0.0859551" />
  <path
     d="m 6.672518,10.158241 c 0,0.03645 0.0013,0.03901 0.03623,0.03901 h 0.089351 c 0.067345,0 0.082877,-0.0091 0.095788,-0.07149 l 0.00649,-0.03243 c 0.00904,-0.01037 0.041438,-0.01037 0.047919,0.0013 -0.00259,0.04163 -0.00388,0.08838 -0.00388,0.137769 0,0.04937 0.0013,0.09616 0.00388,0.137716 -0.00648,0.01169 -0.038869,0.013 -0.047919,0.0013 l -0.00649,-0.03242 c -0.012911,-0.0624 -0.028426,-0.07281 -0.095788,-0.07281 H 6.708748 c -0.034914,0 -0.03623,0.0013 -0.03623,0.04032 v 0.15459 c 0,0.0598 0.00522,0.101409 0.020716,0.123423 0.016812,0.02344 0.041438,0.03378 0.1359544,0.03378 0.112626,0 0.1566525,-0.0038 0.2278482,-0.150697 0.010335,-0.01431 0.042694,-0.0091 0.047895,0.0065 -0.0052,0.06757 -0.036273,0.172797 -0.054349,0.207927 -0.068661,-0.0026 -0.1929256,-0.0039 -0.2991145,-0.0039 H 6.5831596 c -0.062119,0 -0.1255625,0.0013 -0.2226829,0.0039 -0.010334,-0.0078 -0.010334,-0.03896 0,-0.0455 l 0.060857,-0.009 c 0.05825,-0.0092 0.066013,-0.01689 0.066013,-0.136444 V 10.0063 c 0,-0.118195 -0.00777,-0.1260347 -0.066013,-0.1377343 l -0.032363,-0.00647 c -0.011631,-0.00778 -0.010334,-0.03769 0.00261,-0.045468 0.060812,0.00262 0.124299,0.00384 0.1864096,0.00384 h 0.2744629 c 0.082876,0 0.1566689,-0.00122 0.1735166,-0.00384 0.00127,0.020757 0.010359,0.1143457 0.016813,0.2013773 -0.00521,0.01434 -0.034931,0.0169 -0.047912,0.0052 C 6.9806212,9.977802 6.9625044,9.9388565 6.9456902,9.920646 6.9210993,9.8958581 6.8822041,9.8802743 6.8188221,9.8802743 H 6.7152354 c -0.042737,0 -0.042737,0.00262 -0.042737,0.050706 v 0.2273227 z"
     fill="#002e71"
     id="path8689"
     style="stroke-width:0.0859551" />
  <path
     d="m 8.6520469,10.531226 c 0,0.05454 0.00257,0.08053 0.027162,0.08574 0.00517,0.0052 0.0039,0.02726 -0.00388,0.03118 -0.02197,0.0038 -0.055665,0.0078 -0.090604,0.0195 -0.045299,0.0143 -0.1566702,0.03118 -0.2291988,0.03118 -0.087992,0 -0.1630814,-0.0092 -0.2550281,-0.0455 -0.1514858,-0.06108 -0.2550703,-0.205315 -0.2550703,-0.392414 0,-0.162436 0.072528,-0.3054045 0.2278753,-0.3924256 0.088052,-0.04811 0.1929163,-0.068895 0.3029471,-0.068895 0.1437162,0 0.2149391,0.031158 0.2563421,0.031158 0.0039,0.038983 0.00521,0.1299801 0.018145,0.2092566 -0.0052,0.01428 -0.040132,0.01561 -0.049201,0.0026 C 8.5600984,9.920468 8.478588,9.8593987 8.3581484,9.8593987 c -0.2058455,0 -0.305561,0.1714433 -0.305561,0.3767913 0,0.185817 0.06346,0.296243 0.1475933,0.353454 0.062153,0.04157 0.1294727,0.04935 0.1774013,0.04935 0.073766,0 0.089307,-0.01427 0.089307,-0.09875 v -0.08185 c 0,-0.07018 -0.00776,-0.07792 -0.069888,-0.08707 l -0.056997,-0.0077 c -0.014268,-0.0078 -0.014268,-0.03768 0,-0.04549 0.091928,0.0025 0.1553716,0.0039 0.2188151,0.0039 0.062153,0 0.1255364,-0.0013 0.1695288,-0.0039 0.010418,0.0078 0.010418,0.03767 0,0.04549 l -0.029749,0.0052 c -0.038792,0.0065 -0.046571,0.01946 -0.046571,0.08964 v 0.0728 z"
     fill="#002e71"
     id="path8691"
     style="stroke-width:0.0859551" />
  <path
     d="m 9.571231,10.00758 c 0,-0.1208361 -0.00773,-0.128657 -0.066013,-0.1403725 l -0.032319,-0.00647 c -0.010393,-0.00778 -0.01169,-0.036387 0.00259,-0.044202 0.062146,0.00262 0.1268693,0.00394 0.1890155,0.00394 0.063434,0 0.126868,-0.00131 0.189014,-0.00394 0.010308,0.00778 0.010308,0.036434 0,0.044202 l -0.031027,0.00525 c -0.058278,0.010402 -0.066102,0.020803 -0.066102,0.1416545 v 0.300155 c 0,0.152019 0.016849,0.319639 0.2135978,0.319639 0.1658057,0 0.2162627,-0.145487 0.2162627,-0.323533 v -0.157247 c 0,-0.105234 -0.0051,-0.2040051 -0.01943,-0.2377854 -0.01169,-0.02726 -0.04015,-0.035075 -0.07513,-0.041588 l -0.03498,-0.00647 c -0.01031,-0.010402 -0.0077,-0.036397 0,-0.044203 0.06996,0.00262 0.120423,0.00394 0.173457,0.00394 0.04805,0 0.09584,-0.00131 0.145092,-0.00394 0.0077,0.00778 0.01031,0.033801 0,0.044203 l -0.02338,0.00525 c -0.03361,0.00778 -0.05819,0.015631 -0.06988,0.042872 -0.01419,0.033782 -0.01934,0.1325524 -0.01934,0.2377764 v 0.145539 c 0,0.122115 -0.01169,0.233882 -0.08295,0.313174 -0.0569,0.06108 -0.151456,0.09352 -0.2563208,0.09352 -0.098418,0 -0.1864352,-0.01561 -0.2563159,-0.07274 -0.067389,-0.05585 -0.095841,-0.152037 -0.095841,-0.293682 z"
     fill="#002e71"
     id="path8693"
     style="stroke-width:0.0859551" />
  <path
     d="m 11.221991,10.030916 c 0,-0.1299376 -0.0026,-0.1442058 -0.05698,-0.1520108 l -0.03498,-0.00525 c -0.01298,-0.00647 -0.01298,-0.038983 0.0025,-0.045496 0.09713,-0.00647 0.198127,-0.011676 0.321128,-0.011676 0.110021,0 0.204486,0.016905 0.253738,0.046798 0.07503,0.044156 0.113889,0.1091374 0.113889,0.1922808 0,0.115694 -0.07761,0.165042 -0.137183,0.194911 -0.01298,0.0065 -0.01298,0.01432 -0.0065,0.0286 0.08553,0.174091 0.138559,0.271556 0.200704,0.324845 0.03361,0.02731 0.0673,0.03507 0.08673,0.03636 0.01168,0.0065 0.01168,0.02601 0.0052,0.03383 -0.02071,0.0091 -0.06215,0.01171 -0.102286,0.01171 -0.119132,0 -0.194259,-0.04289 -0.251245,-0.136494 -0.04134,-0.06881 -0.07116,-0.132509 -0.100912,-0.201383 -0.01556,-0.03508 -0.03627,-0.04545 -0.06859,-0.04545 -0.04538,0 -0.04796,0.0025 -0.04796,0.02856 v 0.159824 c 0,0.119554 0.0078,0.128614 0.06602,0.139074 l 0.03498,0.0065 c 0.0091,0.0065 0.0091,0.0377 0,0.04549 -0.06867,-0.0026 -0.128157,-0.0039 -0.190388,-0.0039 -0.06464,0 -0.121627,0.0013 -0.188929,0.0039 -0.01032,-0.0078 -0.01032,-0.03898 0,-0.04549 l 0.03499,-0.0065 c 0.05819,-0.01046 0.06601,-0.0195 0.06601,-0.139074 z m 0.177324,0.165041 c 0,0.0455 0.0039,0.04937 0.08029,0.04937 0.04659,0 0.07383,-0.01167 0.09842,-0.03641 0.022,-0.02209 0.04659,-0.06364 0.04659,-0.14032 0,-0.1169413 -0.06859,-0.1922891 -0.169589,-0.1922891 -0.05312,0 -0.0557,0.00384 -0.0557,0.066252 z"
     fill="#002e71"
     id="path8695"
     style="stroke-width:0.0859551" />
  <path
     d="m 13.549732,10.245347 c 0,0.283274 -0.189015,0.453505 -0.467336,0.453505 -0.260272,0 -0.449286,-0.17153 -0.449286,-0.443079 0,-0.25734 0.191592,-0.4561251 0.462177,-0.4561251 0.269295,0 0.454445,0.181939 0.454445,0.4456991 z M 13.084974,9.8594202 c -0.159275,0 -0.244713,0.1494758 -0.244713,0.3664678 0,0.158516 0.0557,0.413202 0.266717,0.413202 0.169589,0 0.235602,-0.166365 0.235602,-0.376853 0,-0.222176 -0.09713,-0.4028168 -0.257606,-0.4028168 z"
     fill="#002e71"
     id="path8697"
     style="stroke-width:0.0859551" />
  <path
     d="m 14.578951,10.698844 c -0.119131,0 -0.19288,-0.03382 -0.220043,-0.04939 -0.02458,-0.02859 -0.04152,-0.122141 -0.04152,-0.210504 0.0091,-0.0169 0.03894,-0.01819 0.04925,-0.0039 0.02587,0.08447 0.112686,0.203987 0.222707,0.203987 0.09575,0 0.139764,-0.06625 0.139764,-0.131245 0,-0.105198 -0.09833,-0.167584 -0.175949,-0.20659 -0.09334,-0.04677 -0.195634,-0.124686 -0.195634,-0.253387 -0.0012,-0.1468004 0.112687,-0.2481665 0.300412,-0.2481665 0.04272,0 0.09584,0.00525 0.147585,0.020785 0.01684,0.00525 0.02845,0.00778 0.04401,0.010402 0.0104,0.028591 0.02329,0.098769 0.02329,0.1857985 -0.0065,0.0156 -0.03885,0.01693 -0.05045,0.0039 -0.022,-0.066337 -0.0777,-0.1611832 -0.170878,-0.1611832 -0.08544,0 -0.132112,0.05586 -0.132112,0.1209035 0,0.05973 0.05311,0.1142937 0.117844,0.1480477 l 0.08544,0.0455 c 0.08028,0.04285 0.182568,0.118257 0.182568,0.261175 0,0.15984 -0.130737,0.26382 -0.326285,0.26382 z"
     fill="#002e71"
     id="path8699"
     style="stroke-width:0.0859551" />
</svg>
